<mxfile host="app.diagrams.net" agent="Mozilla/5.0 (Windows NT 10.0; Win64; x64) AppleWebKit/537.36 (KHTML, like Gecko) Chrome/128.0.0.0 Safari/537.36 OPR/114.0.0.0 (Edition std-2)" version="26.0.6">
  <diagram name="PÃ¡gina-1" id="QxZHuA9BTodlCsACra_R">
    <mxGraphModel dx="1922" dy="944" grid="1" gridSize="2" guides="0" tooltips="1" connect="0" arrows="0" fold="1" page="0" pageScale="1" pageWidth="827" pageHeight="1169" math="0" shadow="0">
      <root>
        <mxCell id="0" />
        <mxCell id="1" parent="0" />
        <mxCell id="rmhbF8WdTexo4rZAj8Tn-1" value="" style="rounded=1;whiteSpace=wrap;html=1;fillStyle=solid;fillColor=#3B3B3B;strokeColor=#000000;" parent="1" vertex="1">
          <mxGeometry x="-192" y="768" width="130" height="138" as="geometry" />
        </mxCell>
        <mxCell id="b8C02gfYpQdLl2ePiPMn-4" value="" style="rounded=1;whiteSpace=wrap;html=1;fillStyle=solid;fillColor=#3B3B3B;strokeColor=#000000;" parent="1" vertex="1">
          <mxGeometry x="480" y="162" width="190" height="174" as="geometry" />
        </mxCell>
        <mxCell id="p4GV2qHJiXl9e6osWFzK-28" value="" style="shape=mxgraph.cisco.switches.workgroup_switch;sketch=0;html=1;pointerEvents=1;dashed=0;fillColor=#585959;strokeColor=#000000;strokeWidth=2;verticalLabelPosition=bottom;verticalAlign=top;align=center;outlineConnect=0;gradientColor=#E0E0E0;fontColor=#FFFFFF;" parent="1" vertex="1">
          <mxGeometry x="442" y="460" width="125.15" height="54.4" as="geometry" />
        </mxCell>
        <mxCell id="p4GV2qHJiXl9e6osWFzK-27" value="" style="shape=mxgraph.cisco.switches.atm_switch;sketch=0;html=1;pointerEvents=1;dashed=0;fillColor=#585959;strokeColor=#000000;strokeWidth=2;verticalLabelPosition=bottom;verticalAlign=top;align=center;outlineConnect=0;gradientColor=#E0E0E0;" parent="1" vertex="1">
          <mxGeometry x="-180" y="201" width="98.5" height="64" as="geometry" />
        </mxCell>
        <mxCell id="p4GV2qHJiXl9e6osWFzK-21" value="" style="shape=mxgraph.cisco.computers_and_peripherals.ibm_mainframe;sketch=0;html=1;pointerEvents=1;dashed=0;fillColor=#585959;strokeColor=#000000;strokeWidth=2;verticalLabelPosition=bottom;verticalAlign=top;align=center;outlineConnect=0;gradientColor=#E0E0E0;" parent="1" vertex="1">
          <mxGeometry x="-176" y="389.20000000000005" width="92.5" height="170.6" as="geometry" />
        </mxCell>
        <mxCell id="p4GV2qHJiXl9e6osWFzK-18" value="" style="shape=mxgraph.cisco.servers.fileserver;html=1;pointerEvents=1;strokeWidth=2;verticalLabelPosition=bottom;verticalAlign=top;align=center;outlineConnect=0;fillColor=#585959;strokeColor=#000000;fillStyle=auto;gradientColor=#E0E0E0;perimeterSpacing=1;shadow=0;gradientDirection=south;" parent="1" vertex="1">
          <mxGeometry x="200.85000000000002" y="167.99999999999997" width="68.3" height="90" as="geometry" />
        </mxCell>
        <mxCell id="p4GV2qHJiXl9e6osWFzK-17" value="" style="shape=mxgraph.cisco.servers.fileserver;html=1;pointerEvents=1;strokeWidth=2;verticalLabelPosition=bottom;verticalAlign=top;align=center;outlineConnect=0;fillColor=#585959;strokeColor=#000000;fillStyle=auto;gradientColor=#E0E0E0;perimeterSpacing=1;shadow=0;gradientDirection=south;" parent="1" vertex="1">
          <mxGeometry x="865.35" y="556" width="68.3" height="90" as="geometry" />
        </mxCell>
        <mxCell id="p4GV2qHJiXl9e6osWFzK-13" value="" style="shape=mxgraph.cisco.servers.fileserver;html=1;pointerEvents=1;strokeWidth=2;verticalLabelPosition=bottom;verticalAlign=top;align=center;outlineConnect=0;fillColor=#585959;strokeColor=#000000;fillStyle=auto;gradientColor=#E0E0E0;perimeterSpacing=1;shadow=0;gradientDirection=south;" parent="1" vertex="1">
          <mxGeometry x="385.85" y="168" width="68.3" height="90" as="geometry" />
        </mxCell>
        <mxCell id="gzpW1YzoJddCeBnZML00-3" style="rounded=0;orthogonalLoop=1;jettySize=auto;html=1;startArrow=classic;startFill=1;strokeColor=#FFFFFF;" parent="1" edge="1">
          <mxGeometry relative="1" as="geometry">
            <mxPoint x="-129.81328320802004" y="381" as="sourcePoint" />
            <mxPoint x="-129.58354218880527" y="271" as="targetPoint" />
          </mxGeometry>
        </mxCell>
        <mxCell id="gzpW1YzoJddCeBnZML00-4" value="&lt;div&gt;Gatewat-CTIC&lt;/div&gt;200.239.72.254" style="text;html=1;align=center;verticalAlign=middle;whiteSpace=wrap;rounded=0;fillColor=#f5f5f5;fontColor=#333333;strokeColor=#000000;fillStyle=solid;shadow=0;" parent="1" vertex="1">
          <mxGeometry x="-180" y="291" width="100" height="56" as="geometry" />
        </mxCell>
        <mxCell id="gzpW1YzoJddCeBnZML00-5" value="&lt;div&gt;DHCP-Server-CTIC&lt;br&gt;&lt;/div&gt;200.239.67.65" style="text;html=1;align=center;verticalAlign=middle;whiteSpace=wrap;rounded=0;fillColor=#f5f5f5;fontColor=#333333;strokeColor=#000000;fillStyle=solid;shadow=0;" parent="1" vertex="1">
          <mxGeometry x="-188" y="576.6" width="116" height="56" as="geometry" />
        </mxCell>
        <mxCell id="gzpW1YzoJddCeBnZML00-15" value="&lt;div&gt;Zabbix Server&lt;br&gt;&lt;/div&gt;&lt;div&gt;192.168.1.20&lt;/div&gt;" style="text;html=1;align=center;verticalAlign=middle;whiteSpace=wrap;rounded=0;fillColor=#f5f5f5;fontColor=#333333;strokeColor=#000000;fillStyle=solid;shadow=0;" parent="1" vertex="1">
          <mxGeometry x="186" y="270" width="100" height="56" as="geometry" />
        </mxCell>
        <mxCell id="gzpW1YzoJddCeBnZML00-19" value="&lt;div&gt;Lacis&lt;br&gt;&lt;/div&gt;&lt;div&gt;192.168.1.10&lt;/div&gt;" style="text;html=1;align=center;verticalAlign=middle;whiteSpace=wrap;rounded=0;fillColor=#f5f5f5;fontColor=#333333;strokeColor=#000000;fillStyle=solid;shadow=0;" parent="1" vertex="1">
          <mxGeometry x="370" y="269.73" width="100" height="56" as="geometry" />
        </mxCell>
        <mxCell id="gzpW1YzoJddCeBnZML00-20" value="&lt;div&gt;HODOR&lt;br&gt;&lt;/div&gt;&lt;div&gt;192.168.1.2&lt;/div&gt;" style="text;html=1;align=center;verticalAlign=middle;whiteSpace=wrap;rounded=0;fillColor=#f5f5f5;fontColor=#333333;strokeColor=#000000;fillStyle=solid;shadow=0;" parent="1" vertex="1">
          <mxGeometry x="694" y="670.73" width="100" height="56" as="geometry" />
        </mxCell>
        <mxCell id="gzpW1YzoJddCeBnZML00-21" value="&lt;div&gt;AVANCOS&lt;/div&gt;&lt;div&gt;192.168.1.9&lt;br&gt;&lt;/div&gt;" style="text;html=1;align=center;verticalAlign=middle;whiteSpace=wrap;rounded=0;fillColor=#f5f5f5;fontColor=#333333;strokeColor=#000000;fillStyle=solid;shadow=0;" parent="1" vertex="1">
          <mxGeometry x="849.5" y="670.73" width="100" height="56" as="geometry" />
        </mxCell>
        <mxCell id="gzpW1YzoJddCeBnZML00-27" style="edgeStyle=orthogonalEdgeStyle;rounded=0;orthogonalLoop=1;jettySize=auto;html=1;startArrow=classic;startFill=1;strokeColor=#FFFFFF;entryX=0.373;entryY=1.007;entryDx=0;entryDy=0;entryPerimeter=0;exitX=0.731;exitY=-0.037;exitDx=0;exitDy=0;exitPerimeter=0;" parent="1" target="p4GV2qHJiXl9e6osWFzK-28" edge="1">
          <mxGeometry relative="1" as="geometry">
            <mxPoint x="494" y="516" as="targetPoint" />
            <Array as="points" />
            <mxPoint x="533.0346500000003" y="651.9872" as="sourcePoint" />
          </mxGeometry>
        </mxCell>
        <mxCell id="gzpW1YzoJddCeBnZML00-31" value="&lt;div&gt;Switch 1 DELL CORE&lt;br&gt;&lt;/div&gt;&lt;div&gt;(Layer 2 - Sem IP)&lt;/div&gt;" style="text;html=1;align=center;verticalAlign=middle;whiteSpace=wrap;rounded=0;fillColor=#f5f5f5;fontColor=#333333;strokeColor=#000000;fillStyle=solid;shadow=0;" parent="1" vertex="1">
          <mxGeometry x="436" y="524" width="135" height="56" as="geometry" />
        </mxCell>
        <mxCell id="gzpW1YzoJddCeBnZML00-45" value="&lt;div&gt;WifiSala1&lt;br&gt;&lt;/div&gt;&lt;div&gt;192.168.1.5&lt;/div&gt;" style="text;html=1;align=center;verticalAlign=middle;whiteSpace=wrap;rounded=0;fillColor=#f5f5f5;fontColor=#333333;strokeColor=#000000;fillStyle=solid;shadow=0;" parent="1" vertex="1">
          <mxGeometry x="-171.6700000000003" y="838" width="89.75" height="56" as="geometry" />
        </mxCell>
        <mxCell id="p4GV2qHJiXl9e6osWFzK-5" value="" style="shape=mxgraph.cisco.servers.fileserver;html=1;pointerEvents=1;strokeWidth=2;verticalLabelPosition=bottom;verticalAlign=top;align=center;outlineConnect=0;fillColor=#585959;strokeColor=#000000;fillStyle=auto;gradientColor=#E0E0E0;perimeterSpacing=1;shadow=0;gradientDirection=south;" parent="1" vertex="1">
          <mxGeometry x="709.85" y="556" width="68.3" height="90" as="geometry" />
        </mxCell>
        <mxCell id="p4GV2qHJiXl9e6osWFzK-20" value="" style="shape=mxgraph.cisco.routers.router;sketch=0;html=1;pointerEvents=1;dashed=0;fillColor=#585959;strokeColor=#000000;strokeWidth=2;verticalLabelPosition=bottom;verticalAlign=top;align=center;outlineConnect=0;gradientColor=#E0E0E0;gradientDirection=south;" parent="1" vertex="1">
          <mxGeometry x="40" y="460" width="78" height="53" as="geometry" />
        </mxCell>
        <mxCell id="p4GV2qHJiXl9e6osWFzK-36" value="" style="shape=mxgraph.cisco.routers.router;sketch=0;html=1;pointerEvents=1;dashed=0;fillColor=#585959;strokeColor=#000000;strokeWidth=2;verticalLabelPosition=bottom;verticalAlign=top;align=center;outlineConnect=0;gradientColor=#E0E0E0;gradientDirection=south;" parent="1" vertex="1">
          <mxGeometry x="-166.79999999999995" y="777.0699999999999" width="78" height="53" as="geometry" />
        </mxCell>
        <mxCell id="b8C02gfYpQdLl2ePiPMn-6" value="" style="rounded=0;whiteSpace=wrap;html=1;fillColor=#33FF33;strokeColor=default;" parent="1" vertex="1">
          <mxGeometry x="96" y="176" width="8" height="8" as="geometry" />
        </mxCell>
        <mxCell id="b8C02gfYpQdLl2ePiPMn-7" value="Server Up" style="text;html=1;align=left;verticalAlign=middle;whiteSpace=wrap;rounded=0;fontSize=8;fontStyle=1;fontColor=#FFFFFF;strokeColor=none;" parent="1" vertex="1">
          <mxGeometry x="105.3" y="166" width="83.7" height="30" as="geometry" />
        </mxCell>
        <mxCell id="b8C02gfYpQdLl2ePiPMn-8" value="" style="rounded=0;whiteSpace=wrap;html=1;fillColor=#FF0000;strokeColor=default;fillStyle=solid;gradientColor=none;" parent="1" vertex="1">
          <mxGeometry x="96" y="200" width="8" height="8" as="geometry" />
        </mxCell>
        <mxCell id="b8C02gfYpQdLl2ePiPMn-9" value="Server Down" style="text;html=1;align=left;verticalAlign=middle;whiteSpace=wrap;rounded=0;fontSize=8;fontStyle=1;fontColor=#FFFFFF;" parent="1" vertex="1">
          <mxGeometry x="105.3" y="190" width="83.7" height="30" as="geometry" />
        </mxCell>
        <mxCell id="b8C02gfYpQdLl2ePiPMn-12" value="" style="shape=image;editableCssRules=.*;verticalLabelPosition=bottom;labelBackgroundColor=default;verticalAlign=top;aspect=fixed;imageAspect=0;image=data:image/svg+xml,PHN2ZyB4bWxucz0iaHR0cDovL3d3dy53My5vcmcvMjAwMC9zdmciIHZpZXdCb3g9Ii0wLjUgLTAuNSA0NS4xNzYgNDIuNDQ4IiBoZWlnaHQ9IjQyLjQ0OCIgd2lkdGg9IjQ1LjE3NiI+JiN4YTsJICA8c3R5bGUgdHlwZT0idGV4dC9jc3MiPi5zdDAgeyBzdG9wLWNvbG9yOiByZ2IoMjU1LCAyNTUsIDUxKTsgfSAuc3QxIHsgc3RvcC1jb2xvcjogcmdiKDI1NSwgMjU1LCA1MSk7IH0gPC9zdHlsZT4mI3hhOwk8ZGVmcz4mI3hhOwkJPGxpbmVhckdyYWRpZW50IGdyYWRpZW50VW5pdHM9InVzZXJTcGFjZU9uVXNlIiB5Mj0iNDEuOTQ4IiB4Mj0iMjIuMDg4IiB5MT0iLS41IiB4MT0iMjIuMDg4IiBpZD0iQSI+JiN4YTsJCQk8c3RvcCBjbGFzcz0ic3QwIi8+JiN4YTsJCQk8c3RvcCBjbGFzcz0ic3QxIiBvZmZzZXQ9IjEiLz4mI3hhOwkJPC9saW5lYXJHcmFkaWVudD4mI3hhOwk8L2RlZnM+JiN4YTsJPHBhdGggZmlsbD0idXJsKCNBKSIgZD0iTTQzLjk3MSAzMy42NTVjLjQ3Mi43NjIuNzA2IDEuNjQ2LjcwNiAyLjY0NiAwIDEuNDcxLS41MzEgMi43OTUtMS41OSAzLjk3LTEuMDU2IDEuMTE4LTIuNDExIDEuNjc3LTQuMDU3IDEuNjc3SDUuMTQ3Yy0xLjY0NiAwLTMuMDAxLS41NTktNC4wNi0xLjY3N0MuMDMxIDM5LjA5Ni0uNSAzNy43NzQtLjUgMzYuMzAxYzAtMSAuMjM0LTEuODguNzA2LTIuNjQ2TDE3LjE0NyAyLjUwOWMuNTMxLTEuMDAyIDEuMjM3LTEuNzM2IDIuMTE4LTIuMjExLjg0OS0uNTIyIDEuODI3LS43OTggMi44MjQtLjc5OHMxLjk3NC4yNzYgMi44MjQuNzk4Yy44ODQuNDcyIDEuNTkgMS4yMDYgMi4xMTggMi4yMDV6bS0yNC43MDYtOS4zNTdjMCAuODI0LjI2NSAxLjUzLjc5MyAyLjExOC4yNjYuMjY0LjU4NC40NzEuOTMzLjYwOHMuNzIzLjIwMSAxLjA5Ny4xODhjLjM3NC4wMTQuNzQ4LS4wNDkgMS4wOTctLjE4NnMuNjY3LS4zNDIuOTMzLS42MDVjLjUyOC0uNTkzLjc5My0xLjI5OS43OTMtMi4xMThWMTMuMDA5YzAtLjc2OC0uMjY1LTEuNDEyLS43OTMtMS45NDNhMi42MSAyLjYxIDAgMCAwLTIuMDMtLjg4NyAyLjYxIDIuNjEgMCAwIDAtMi4wMy44ODQgMi42NCAyLjY0IDAgMCAwLS43OTMgMS45NHptMi44MjQgMTMuMTQ2Yy45NCAwIDEuNzM2LS4zMjIgMi4zODMtLjk2OHMuOTcxLTEuNDcxLjk3MS0yLjQ3MWMwLS45NDMtLjMyNS0xLjczNi0uOTcxLTIuMzgzYTMuMjMgMy4yMyAwIDAgMC0yLjM4My0uOTcxYy0uOTQgMC0xLjczNi4zMjUtMi4zODMuOTcxYTMuMjQgMy4yNCAwIDAgMC0uOTY4IDIuMzgzYzAgMSAuMzIyIDEuODI0Ljk2OCAyLjQ3MXMxLjQ0Ljk3MSAyLjM4My45NzF6Ii8+JiN4YTs8L3N2Zz4=;" parent="1" vertex="1">
          <mxGeometry x="274.14999999999986" y="167.99999999999991" width="10.71" height="10" as="geometry" />
        </mxCell>
        <mxCell id="b8C02gfYpQdLl2ePiPMn-13" value="&lt;font style=&quot;font-size: 6px;&quot;&gt;NÃ£o foi possÃ­vel replicar os dados de ping do Zabbix Server&lt;/font&gt;" style="text;html=1;align=left;verticalAlign=middle;whiteSpace=wrap;rounded=0;fontColor=#FFFFFF;strokeColor=none;labelBackgroundColor=none;textShadow=0;labelBorderColor=none;fontStyle=1;" parent="1" vertex="1">
          <mxGeometry x="293.0000000000001" y="178.00000000000003" width="61.15" height="30" as="geometry" />
        </mxCell>
        <mxCell id="BjdbWazUXjx8ErtOSyGp-1" value="" style="rounded=0;whiteSpace=wrap;html=1;fillColor=#B266FF;strokeColor=default;" parent="1" vertex="1">
          <mxGeometry x="96" y="224" width="8" height="8" as="geometry" />
        </mxCell>
        <mxCell id="BjdbWazUXjx8ErtOSyGp-2" value="No Data" style="text;html=1;align=left;verticalAlign=middle;whiteSpace=wrap;rounded=0;fontSize=8;fontStyle=1;fontColor=#FFFFFF;strokeColor=none;" parent="1" vertex="1">
          <mxGeometry x="105.3" y="214" width="83.7" height="30" as="geometry" />
        </mxCell>
        <mxCell id="gzpW1YzoJddCeBnZML00-6" value="&lt;div&gt;Mikrotik&lt;/div&gt;&lt;div&gt;192.168.1.1&lt;/div&gt;" style="text;html=1;align=center;verticalAlign=middle;whiteSpace=wrap;rounded=0;fillColor=#f5f5f5;fontColor=#333333;strokeColor=#000000;fillStyle=solid;shadow=0;" parent="1" vertex="1">
          <mxGeometry x="38" y="522" width="82" height="56" as="geometry" />
        </mxCell>
        <mxCell id="yjerd-eos3Q-2cuMr9H0-2" value="" style="endArrow=classic;startArrow=classic;html=1;rounded=0;exitX=1.051;exitY=0.461;exitDx=0;exitDy=0;exitPerimeter=0;strokeColor=#FFFFFF;" edge="1" parent="1" source="p4GV2qHJiXl9e6osWFzK-20" target="p4GV2qHJiXl9e6osWFzK-28">
          <mxGeometry width="50" height="50" relative="1" as="geometry">
            <mxPoint x="322" y="478" as="sourcePoint" />
            <mxPoint x="372" y="428" as="targetPoint" />
          </mxGeometry>
        </mxCell>
        <mxCell id="yjerd-eos3Q-2cuMr9H0-4" value="" style="endArrow=classic;startArrow=classic;html=1;rounded=0;exitX=1.016;exitY=0.567;exitDx=0;exitDy=0;exitPerimeter=0;strokeColor=#FFFFFF;" edge="1" parent="1" source="p4GV2qHJiXl9e6osWFzK-21">
          <mxGeometry width="50" height="50" relative="1" as="geometry">
            <mxPoint x="-68" y="486" as="sourcePoint" />
            <mxPoint x="38" y="486" as="targetPoint" />
          </mxGeometry>
        </mxCell>
        <mxCell id="yjerd-eos3Q-2cuMr9H0-6" value="" style="endArrow=classic;startArrow=classic;html=1;rounded=0;strokeColor=#FFFFFF;" edge="1" parent="1" source="p4GV2qHJiXl9e6osWFzK-36" target="yjerd-eos3Q-2cuMr9H0-7">
          <mxGeometry width="50" height="50" relative="1" as="geometry">
            <mxPoint x="288" y="798" as="sourcePoint" />
            <mxPoint x="441.5500000000002" y="693.3174233492898" as="targetPoint" />
          </mxGeometry>
        </mxCell>
        <mxCell id="yjerd-eos3Q-2cuMr9H0-7" value="" style="shape=mxgraph.cisco.switches.workgroup_switch;sketch=0;html=1;pointerEvents=1;dashed=0;fillColor=#585959;strokeColor=#000000;strokeWidth=2;verticalLabelPosition=bottom;verticalAlign=top;align=center;outlineConnect=0;gradientColor=#E0E0E0;fontColor=#FFFFFF;" vertex="1" parent="1">
          <mxGeometry x="448" y="777" width="125.15" height="54.4" as="geometry" />
        </mxCell>
        <mxCell id="yjerd-eos3Q-2cuMr9H0-8" value="&lt;div&gt;Switch 2 Aruba HP&lt;br&gt;&lt;/div&gt;&lt;div&gt;(Layer 2 - Sem IP)&lt;/div&gt;" style="text;html=1;align=center;verticalAlign=middle;whiteSpace=wrap;rounded=0;fillColor=#f5f5f5;fontColor=#333333;strokeColor=#000000;fillStyle=solid;shadow=0;" vertex="1" parent="1">
          <mxGeometry x="442" y="841" width="135" height="56" as="geometry" />
        </mxCell>
      </root>
    </mxGraphModel>
  </diagram>
</mxfile>
